# Exported from Wings 3D 1.4.1
mtllib nest.mtl
o Cube
#136 vertices, 261 faces
v 5.77350521 5.77350235 -5.77349949
v 5.77349806 5.77350235 5.77350616
v -5.77350473 5.77350235 5.77350044
v -5.77350235 5.77350235 -5.77350235
v 7.07106876 4.3297785e-16 -7.07106495
v 7.07106447 -4.3297812e-16 7.07106924
v -7.07106972 -4.3297788e-16 7.07106543
v -7.07106543 4.3297812e-16 -7.07106924
v 7.07106638 7.07106733 3.8078390e-6
v 1.6680718e-6 7.07106829 -7.07106638
v -3.8110177e-6 7.07106686 7.07106733
v -7.07106781 7.07106686 -1.2497821e-6
v -1.4081593e-6 10.00000000 1.7208176e-6
v 10.00000000 -1.7836433e-22 2.9129105e-6
v -2.8982754e-6 -6.1232340e-16 10.00000000
v -10.00000000 1.5011154e-22 -2.4515075e-6
v 2.4661424e-6 6.1232340e-16 -10.00000000
v 6.66666842 3.33333349 -6.66666365
v 6.66666269 3.33333302 6.66666889
v -6.66666889 3.33333349 6.66666508
v -6.66666603 3.33333349 -6.66666746
v 6.66666460 6.66666698 3.33333731
v -3.33333302 6.66666746 -6.66666698
v -3.33333588 6.66666603 6.66666555
v -6.66666651 6.66666698 -3.33333397
v 6.66666794 6.66666698 -3.33332968
v 3.33333611 6.66666746 -6.66666508
v 3.33332896 6.66666603 6.66666842
v -6.66666794 6.66666603 3.33333111
v -3.0194421e-6 8.94427204 4.47213697
v 4.4583911e-7 8.94427204 -4.47213507
v 4.47213507 8.94427204 3.1609363e-6
v -4.47213650 8.94427204 -3.7784843e-8
v 8.94427109 -2.7383950e-16 4.47213840
v 8.94427204 2.7383921e-16 -4.47213364
v 8.94427204 4.47213602 3.6940564e-6
v -4.47213745 -5.4767865e-16 8.94427109
v 4.47213268 -5.4767871e-16 8.94427204
v -3.6858419e-6 4.47213602 8.94427204
v -8.94427109 2.7383950e-16 -4.47213840
v -8.94427204 -2.7383921e-16 4.47213364
v -8.94427204 4.47213602 -1.9037057e-6
v -4.47213411 5.4767871e-16 -8.94427204
v 4.47213793 5.4767865e-16 -8.94427109
v 2.1784799e-6 4.47213602 -8.94427204
v -4.08248520 8.16496468 4.08248234
v 8.16496372 4.08248234 4.08248568
v -4.08248520 4.08248234 8.16496468
v -8.16496468 4.08248281 -4.08248377
v 4.08247948 8.16496468 4.08248568
v 4.08248377 8.16496563 -4.08248043
v -4.08248281 8.16496468 -4.08248234
v 8.16496658 4.08248281 -4.08247995
v 4.08247900 4.08248234 8.16496658
v -8.16496658 4.08248234 4.08248091
v -4.08248186 4.08248281 -8.16496563
v 4.08248520 4.08248281 -8.16496468
v 8.00767040 3.5340853e-16 -5.77159929
v -5.77160358 -4.9032828e-16 8.00766850
v -8.00767040 -3.5340853e-16 5.77159929
v 5.77160311 4.9032828e-16 -8.00766850
v 9.47213459 -1.3691984e-16 2.23607063
v 9.47213650 1.3691952e-16 -2.23606539
v -2.23607016 -5.8000097e-16 9.47213459
v 4.47213411 -4.4308142e-16 7.23606873
v -9.47213650 -1.3691953e-16 2.23606563
v -2.23606586 5.8000108e-16 -9.47213650
v 2.23607016 5.8000097e-16 -9.47213459
v 4.99999857 -3.0616179e-16 5.00000143
v 3.53553295 -8.9672744e-17 1.46446705
v 4.5262200e-7 0.0000000e+0 0.0000000e+0
v -1.29946554 5.7350368e-17 -0.93660259
v -4.99999857 3.0616176e-16 -5.00000095
v -2.23606730 1.3691971e-16 -2.23606849
v -7.23606730 2.7383944e-16 -4.47213745
v 6.50383472 2.3623384e-17 -0.38579914
v 1.76776671 -4.4836372e-17 0.73223352
v -3.61803293 2.2154072e-16 -3.61803460
v 7.53937006 3.9319318e-16 -6.42133188
v -6.42133665 -4.6165307e-16 7.53936672
v -7.53937006 -3.9319321e-16 6.42133236
v 6.42133570 4.6165304e-16 -7.53936625
v 9.73606777 6.8459670e-17 -1.11803126
v -1.11803651 -5.9616221e-16 9.73606777
v -9.73606777 -6.8459692e-17 1.11803162
v 1.11803627 5.9616221e-16 -9.73606777
v 2.49999785 -4.5924258e-16 7.50000048
v 1.76776505 -3.5099807e-16 5.73223352
v 2.23606920 2.7383932e-16 -4.47213554
v 1.58633626 3.0251451e-16 -4.94043684
v -2.49999809 4.5924255e-16 -7.50000000
v 1.11803544 3.4229915e-16 -5.59016943
v 8.47597122 3.1362388e-16 -5.12186670
v -5.12187052 -5.1900349e-16 8.47597027
v -8.47597122 -3.1362388e-16 5.12186670
v 5.12187052 5.1900349e-16 -8.47597027
v 9.20820427 2.0537936e-16 -3.35409951
v -3.35410380 -5.6383978e-16 9.20820236
v -9.20820427 -2.0537938e-16 3.35409975
v 3.35410428 5.6383978e-16 -9.20820236
v 7.49999905 -1.5308097e-16 2.50000191
v 5.30330086 1.7165255e-16 -2.80329895
v -2.23606849 -2.7383932e-16 4.47213554
v -4.18526745 -1.8781376e-16 3.06723142
v -7.49999905 1.5308094e-16 -2.50000143
v -5.59016943 -6.8459743e-17 1.11803246
v 5.01968384 -3.3024683e-17 0.53933400
v 7.98798561 8.0271451e-17 -1.31093228
v 5.75191689 -1.4126919e-16 2.30710101
v 7.25575256 1.8851597e-16 -3.07869935
v 2.65164971 -6.7254558e-17 1.09835029
v 0.88388360 -2.2418186e-17 0.36611676
v 3.76968503 2.2274595e-16 -3.63771749
v -0.23415177 -3.1241868e-16 5.10218430
v -3.53553462 -2.1648894e-16 3.53553271
v -2.88580155 -2.4516414e-16 4.00383425
v -0.64973253 2.8675184e-17 -0.46830130
v -4.65356779 -1.4802910e-16 2.41749859
v -1.76776636 9.7135037e-17 -1.58633554
v -5.12186861 -1.0824442e-16 1.76776552
v -4.30901575 2.6385123e-16 -4.30901766
v -2.92704988 1.7923023e-16 -2.92705178
v -6.54508448 4.2310601e-17 -0.69098455
v -0.69098133 4.0077087e-16 -6.54508495
v 6.27952671 1.8008427e-16 -2.94099927
v 0.76680660 -3.3170839e-16 5.41720915
v -1.59548974 4.3000671e-16 -7.02254248
v 3.75984097 -2.4613363e-16 4.01966715
v 7.74399233 -3.6404765e-17 0.59453493
v 8.23197842 1.9694766e-16 -3.21639943
v 4.53649282 1.9719926e-16 -3.22050834
v 3.00287724 2.4829263e-16 -4.05492640
v -1.23511016 -2.9312900e-16 4.78715992
v -7.02254152 9.7695767e-17 -1.59549296
v -6.06762695 -1.3074573e-17 0.21352398
v 0.21352704 3.7153500e-16 -6.06762695
vn -0.56557798 -0.58314746 0.58314714
vn -0.59198778 -0.56989015 -0.56989095
vn 0.56557776 -0.58314751 -0.58314731
vn 0.59198824 -0.56989027 0.56989034
vn -0.57774416 0.64587259 0.49905940
vn -0.58413608 0.44887762 -0.67623511
vn 0.67623503 0.44887781 -0.58413602
vn 0.58413613 0.44887772 0.67623500
vn -0.70710668 -0.70710688 -3.5637409e-7
vn 7.0250006e-2 -0.70535992 0.70535971
vn -7.0249894e-2 -0.70535973 -0.70535992
vn 0.70710678 -0.70710678 8.7719123e-8
vn 6.8777394e-8 -1.00000000 -7.1817952e-8
vn -0.47108800 0.88208622 -1.1133538e-7
vn 1.0535539e-32 1.00000000 6.1232340e-17
vn 0.77113503 0.63427226 5.5222089e-2
vn -2.4008382e-7 3.7583019e-2 0.99929351
vn -0.66021832 -0.31535354 0.68166260
vn -0.65843650 -0.33945700 -0.67173679
vn 0.64362914 -0.28270743 -0.71120886
vn 0.65843682 -0.33945707 0.67173644
vn -0.65843660 -0.67173648 -0.33945743
vn 0.39497383 -0.64961366 0.64961355
vn 0.28332893 -0.67813151 -0.67813153
vn 0.65843685 -0.67173641 0.33945709
vn -0.67173656 -0.65843690 0.33945668
vn -0.28332893 -0.67813170 0.67813134
vn -0.39497350 -0.64961350 -0.64961391
vn 0.67173657 -0.65843683 -0.33945681
vn -9.4554410e-3 -0.91431977 -0.40488264
vn 9.4556071e-3 -0.91431989 0.40488236
vn -0.40488247 -0.91431984 -9.4559365e-3
vn 0.40488258 -0.91431979 9.4557094e-3
vn -0.79659755 0.44053589 -0.41395710
vn -0.93040931 0.12668754 0.34393136
vn -0.94109173 -0.33410045 5.2184755e-2
vn 0.43600230 0.63768119 -0.63503126
vn -0.28000152 0.87788449 -0.38848162
vn 5.7091840e-2 -0.57133334 -0.81872996
vn 0.87807200 0.14416616 0.45629560
vn 0.54171409 0.80338964 -0.24720625
vn 0.92334922 -0.38171853 -4.1438837e-2
vn 0.40602348 -0.20859517 0.88973760
vn -0.29800437 0.76310686 0.57346431
vn -3.4906843e-2 -0.44266860 0.89600559
vn 0.37215431 -0.85029557 -0.37215403
vn -0.85102985 -0.37043578 -0.37219019
vn 0.44412142 -0.44412129 -0.77814680
vn 0.85029561 -0.37215405 0.37215418
vn -0.38229658 -0.84124804 -0.38229710
vn -0.37215417 -0.85029574 0.37215376
vn 0.38229669 -0.84124816 0.38229670
vn -0.83155380 -0.32466011 0.45068180
vn -0.41584678 -0.41584706 -0.80879087
vn 0.85908904 -0.30495811 -0.41105543
vn 0.36062595 -0.36062606 0.86017310
vn -0.33649272 -0.33094674 0.88161608
vn -0.48934292 0.79758851 0.35269829
vn 0.34770293 0.80397883 -0.48241135
vn 0.48934295 0.79758853 -0.35269818
vn -1.5913865e-25 1.00000000 6.1232340e-17
vn -0.75950795 0.62700109 -0.17325500
vn -0.59073395 0.79472398 0.13945321
vn -1.1996339e-32 1.00000000 6.1232340e-17
vn -7.6967818e-33 1.00000000 6.1232340e-17
vn 0.75950800 0.62700115 -0.17325459
vn 0.0000000e+0 1.00000000 6.1232340e-17
vn -0.17821596 0.63112145 0.75493363
vn 9.8062169e-27 1.00000000 6.1232340e-17
vn -1.0241400e-32 1.00000000 6.1232340e-17
vn -9.4787239e-34 1.00000000 6.1232340e-17
vn -1.9663816e-33 1.00000000 6.1232340e-17
vn -1.2827990e-33 1.00000000 6.1232340e-17
vn 1.4260909e-32 1.00000000 6.1232340e-17
vn 7.6967835e-33 1.00000000 6.1232340e-17
vn 3.6411377e-34 1.00000000 6.1232340e-17
vn 3.1792133e-33 1.00000000 6.1232340e-17
vn 5.0002320e-33 1.00000000 6.1232340e-17
vn -0.48934291 0.79758849 0.35269833
vn 0.34770282 0.80397882 -0.48241145
vn 0.48934307 0.79758856 -0.35269796
vn -0.55396481 0.32000192 0.76858426
vn -0.59073393 0.79472400 0.13945320
vn 1.2392859e-32 1.00000000 6.1232340e-17
vn 0.59073391 0.79472401 -0.13945321
vn -2.5815806e-32 1.00000000 6.1232340e-17
vn 2.6101490e-32 1.00000000 6.1232340e-17
vn 1.5896331e-32 1.00000000 6.1232340e-17
vn -6.2364920e-33 1.00000000 6.1232340e-17
vn -7.9779729e-33 1.00000000 6.1232340e-17
vn 0.0000000e+0 1.00000000 6.1232340e-17
vn -5.1730190e-34 1.00000000 6.1232340e-17
vn -0.48934290 0.79758850 0.35269833
vn 0.34770274 0.80397877 -0.48241158
vn 0.48934289 0.79758851 -0.35269832
vn -1.9096642e-25 1.00000000 6.1232339e-17
vn -0.59073393 0.79472395 0.13945345
vn 3.0911803e-32 1.00000000 6.1232340e-17
vn 0.58648807 0.79803698 -0.13845116
vn -0.13845094 0.79803696 0.58648814
vn 1.9612450e-26 1.00000000 6.1232340e-17
vn -1.2492834e-32 1.00000000 6.1232340e-17
vn 9.6500540e-33 1.00000000 6.1232340e-17
vn 9.9443533e-33 1.00000000 6.1232340e-17
vn -6.7984316e-33 1.00000000 6.1232340e-17
vn -2.1912805e-33 1.00000000 6.1232340e-17
vn -4.2814964e-33 1.00000000 6.1232340e-17
vn -4.4140874e-33 1.00000000 6.1232340e-17
vn -1.9983045e-33 1.00000000 6.1232340e-17
vn -2.4331943e-34 1.00000000 6.1232340e-17
vn 7.4359928e-34 1.00000000 6.1232340e-17
vn -6.6105557e-33 1.00000000 6.1232340e-17
vn 1.9901130e-33 1.00000000 6.1232340e-17
vn -1.7133184e-33 1.00000000 6.1232340e-17
vn 3.0143043e-32 1.00000000 6.1232340e-17
vn 1.0394149e-33 1.00000000 6.1232340e-17
vn -1.3512398e-32 1.00000000 6.1232340e-17
vn -1.2052054e-32 1.00000000 6.1232340e-17
vn 1.8625884e-32 1.00000000 6.1232340e-17
vn -1.0956421e-33 1.00000000 6.1232340e-17
vn 1.7370392e-32 1.00000000 6.1232340e-17
vn -1.1774227e-32 1.00000000 6.1232340e-17
vn 2.7623202e-34 1.00000000 6.1232340e-17
vn -8.1257139e-33 1.00000000 6.1232340e-17
vn -4.1024909e-32 1.00000000 6.1232340e-17
vn 1.9489254e-32 1.00000000 6.1232340e-17
vn 4.3825619e-33 1.00000000 6.1232340e-17
vn -8.4603971e-34 1.00000000 6.1232340e-17
vn -1.4546270e-34 1.00000000 6.1232340e-17
vn -7.7609345e-33 1.00000000 6.1232340e-17
vn -1.1713182e-32 1.00000000 6.1232340e-17
vn -1.1553414e-32 1.00000000 6.1232340e-17
vn 1.3933819e-32 1.00000000 6.1232340e-17
vn -3.0997617e-33 1.00000000 6.1232340e-17
vn -5.6799394e-33 1.00000000 6.1232340e-17
vn 1.2771072e-32 1.00000000 6.1232340e-17
g Cube_Material
usemtl Material
s 1
f 1//1 51//51 27//27
f 1//1 57//57 18//18
f 2//2 28//28 22//22
f 2//2 47//47 19//19
f 3//3 46//46 24//24
f 3//3 48//48 20//20
f 4//4 49//49 21//21
f 5//5 53//53 18//18
f 5//5 79//79 53//53
f 6//6 54//54 19//19
f 6//6 65//65 38//38
f 7//7 55//55 20//20
f 7//7 81//81 55//55
f 8//8 40//40 16//16
f 8//8 56//56 21//21
f 9//9 32//32 26//26
f 9//9 36//36 22//22
f 9//9 50//50 32//32
f 9//9 53//53 36//36
f 10//10 45//45 27//27
f 10//10 52//52 23//23
f 10//10 56//56 45//45
f 11//11 39//39 24//24
f 11//11 50//50 28//28
f 11//11 54//54 39//39
f 12//12 33//33 29//29
f 12//12 42//42 25//25
f 12//12 52//52 33//33
f 12//12 55//55 42//42
f 13//13 32//32 30//30
f 13//13 33//33 31//31
f 13//13 46//46 33//33
f 13//13 51//51 32//32
f 14//14 62//62 36//36
f 14//14 69//69 62//62
f 14//14 101//101 69//69
f 16//16 43//43 8//8
f 16//16 49//49 42//42
f 16//16 75//75 43//43
f 16//16 105//105 75//75
f 17//17 56//56 43//43
f 17//17 57//57 45//45
f 17//17 68//68 57//57
f 17//17 86//86 68//68
f 18//18 26//26 1//1
f 18//18 53//53 26//26
f 18//18 57//57 44//44
f 18//18 82//82 5//5
f 19//19 28//28 2//2
f 19//19 34//34 6//6
f 19//19 47//47 34//34
f 19//19 54//54 28//28
f 20//20 29//29 3//3
f 20//20 48//48 37//37
f 20//20 55//55 29//29
f 20//20 80//80 7//7
f 20//20 94//94 59//59
f 21//21 23//23 4//4
f 21//21 40//40 8//8
f 21//21 49//49 40//40
f 21//21 56//56 23//23
f 22//22 47//47 2//2
f 22//22 50//50 9//9
f 23//23 25//25 4//4
f 23//23 52//52 25//25
f 23//23 56//56 10//10
f 24//24 30//30 11//11
f 24//24 46//46 30//30
f 24//24 48//48 3//3
f 25//25 49//49 4//4
f 25//25 52//52 12//12
f 26//26 51//51 1//1
f 26//26 53//53 9//9
f 27//27 31//31 10//10
f 27//27 51//51 31//31
f 27//27 57//57 1//1
f 28//28 50//50 22//22
f 28//28 54//54 11//11
f 29//29 46//46 3//3
f 29//29 55//55 12//12
f 30//30 46//46 13//13
f 30//30 50//50 11//11
f 31//31 51//51 13//13
f 31//31 52//52 10//10
f 32//32 50//50 30//30
f 32//32 51//51 26//26
f 33//33 46//46 29//29
f 33//33 52//52 31//31
f 34//34 65//65 6//6
f 35//35 97//97 36//36
f 36//36 47//47 22//22
f 36//36 53//53 35//35
f 36//36 62//62 47//47
f 36//36 83//83 14//14
f 36//36 97//97 63//63
f 37//37 94//94 20//20
f 38//38 54//54 6//6
f 38//38 65//65 15//15
f 39//39 48//48 24//24
f 40//40 49//49 16//16
f 41//41 99//99 55//55
f 42//42 49//49 25//25
f 42//42 85//85 16//16
f 43//43 56//56 8//8
f 43//43 67//67 17//17
f 43//43 75//75 67//67
f 44//44 82//82 18//18
f 44//44 96//96 82//82
f 45//45 56//56 17//17
f 45//45 57//57 27//27
f 47//47 62//62 34//34
f 53//53 79//79 58//58
f 53//53 93//93 35//35
f 55//55 66//66 42//42
f 55//55 81//81 60//60
f 55//55 95//95 41//41
f 55//55 99//99 66//66
f 57//57 100//100 44//44
f 58//58 93//93 53//53
f 59//59 80//80 20//20
f 60//60 95//95 55//55
f 62//62 65//65 34//34
f 62//62 69//69 65//65
f 63//63 83//83 36//36
f 65//65 69//69 15//15
f 66//66 85//85 42//42
f 67//67 75//75 73//73
f 67//67 91//91 17//17
f 68//68 100//100 57//57
f 69//69 87//87 15//15
f 73//73 91//91 67//67
f 75//75 105//105 73//73
f 82//82 96//96 61//61
g Cube_Material.001
usemtl Material.001
s 1
f 5//5 125//125 79//79
f 7//7 104//104 81//81
f 14//14 129//129 101//101
f 15//15 126//126 84//84
f 17//17 127//127 86//86
f 37//37 103//103 94//94
f 41//41 135//135 99//99
f 44//44 90//90 89//89
f 44//44 92//92 90//90
f 44//44 100//100 92//92
f 44//44 132//132 96//96
f 58//58 130//130 93//93
f 59//59 115//115 80//80
f 59//59 116//116 115//115
f 60//60 120//120 95//95
f 61//61 131//131 82//82
f 63//63 108//108 83//83
f 63//63 130//130 108//108
f 64//64 133//133 98//98
f 66//66 134//134 85//85
f 68//68 136//136 100//100
f 69//69 128//128 87//87
f 70//70 107//107 102//102
f 70//70 111//111 88//88
f 70//70 128//128 107//107
f 70//70 131//131 111//111
f 71//71 112//112 89//89
f 71//71 116//116 103//103
f 71//71 117//117 116//116
f 71//71 133//133 112//112
f 72//72 117//117 90//90
f 72//72 118//118 104//104
f 72//72 119//119 118//118
f 73//73 121//121 91//91
f 73//73 134//134 121//121
f 74//74 119//119 92//92
f 74//74 120//120 119//119
f 74//74 122//122 106//106
f 74//74 136//136 122//122
f 76//76 125//125 107//107
f 76//76 129//129 108//108
f 77//77 126//126 111//111
f 77//77 132//132 112//112
f 78//78 127//127 121//121
f 78//78 135//135 122//122
f 79//79 110//110 58//58
f 79//79 125//125 110//110
f 80//80 104//104 7//7
f 80//80 115//115 104//104
f 81//81 118//118 60//60
f 82//82 102//102 5//5
f 82//82 131//131 102//102
f 83//83 129//129 14//14
f 84//84 114//114 64//64
f 84//84 126//126 114//114
f 85//85 105//105 16//16
f 85//85 134//134 105//105
f 86//86 124//124 68//68
f 86//86 127//127 124//124
f 87//87 88//88 15//15
f 87//87 128//128 88//88
f 88//88 126//126 15//15
f 88//88 128//128 70//70
f 89//89 117//117 71//71
f 89//89 132//132 44//44
f 90//90 117//117 89//89
f 90//90 119//119 72//72
f 91//91 127//127 17//17
f 92//92 119//119 90//90
f 92//92 136//136 74//74
f 93//93 97//97 35//35
f 93//93 130//130 97//97
f 94//94 116//116 59//59
f 95//95 106//106 41//41
f 95//95 120//120 106//106
f 96//96 113//113 61//61
f 96//96 132//132 113//113
f 97//97 130//130 63//63
f 98//98 103//103 37//37
f 98//98 133//133 103//103
f 99//99 123//123 66//66
f 99//99 135//135 123//123
f 100//100 136//136 92//92
f 101//101 109//109 69//69
f 101//101 129//129 109//109
f 102//102 125//125 5//5
f 102//102 131//131 70//70
f 103//103 116//116 94//94
f 103//103 133//133 71//71
f 104//104 115//115 72//72
f 104//104 118//118 81//81
f 105//105 134//134 73//73
f 106//106 120//120 74//74
f 106//106 135//135 41//41
f 107//107 109//109 76//76
f 107//107 125//125 102//102
f 107//107 128//128 109//109
f 108//108 110//110 76//76
f 108//108 129//129 83//83
f 108//108 130//130 110//110
f 109//109 128//128 69//69
f 109//109 129//129 76//76
f 110//110 125//125 76//76
f 110//110 130//130 58//58
f 111//111 113//113 77//77
f 111//111 126//126 88//88
f 111//111 131//131 113//113
f 112//112 114//114 77//77
f 112//112 132//132 89//89
f 112//112 133//133 114//114
f 113//113 131//131 61//61
f 113//113 132//132 77//77
f 114//114 126//126 77//77
f 114//114 133//133 64//64
f 115//115 117//117 72//72
f 116//116 117//117 115//115
f 118//118 120//120 60//60
f 119//119 120//120 118//118
f 121//121 123//123 78//78
f 121//121 127//127 91//91
f 121//121 134//134 123//123
f 122//122 124//124 78//78
f 122//122 135//135 106//106
f 122//122 136//136 124//124
f 123//123 134//134 66//66
f 123//123 135//135 78//78
f 124//124 127//127 78//78
f 124//124 136//136 68//68
